<mxfile host="app.diagrams.net" modified="2024-01-12T18:12:46.008Z" agent="Mozilla/5.0 (Windows NT 10.0; Win64; x64) AppleWebKit/537.36 (KHTML, like Gecko) Chrome/118.0.0.0 YaBrowser/23.11.0.0 Safari/537.36" etag="Hlg41akBDeHIbTxQqJyC" version="22.1.18" type="device">
  <diagram name="Страница — 1" id="4iQLaL3U6m3UiRJf8xDy">
    <mxGraphModel dx="291" dy="157" grid="0" gridSize="10" guides="1" tooltips="1" connect="1" arrows="1" fold="1" page="0" pageScale="1" pageWidth="827" pageHeight="1169" background="#000000" math="0" shadow="0">
      <root>
        <mxCell id="0" />
        <mxCell id="1" parent="0" />
        <mxCell id="gLL-6p7I-ZL1emImGpAk-1" value="Пользователи" style="swimlane;whiteSpace=wrap;html=1;strokeColor=#FFFFFF;fontColor=#000000;" parent="1" vertex="1">
          <mxGeometry x="40" y="140" width="210" height="90" as="geometry" />
        </mxCell>
        <mxCell id="gLL-6p7I-ZL1emImGpAk-7" value="id пользователя&lt;br&gt;Имя&lt;br&gt;id языка&lt;br&gt;Возможность использования ТП" style="text;html=1;align=left;verticalAlign=middle;resizable=0;points=[];autosize=1;strokeColor=none;fillColor=none;fontColor=#FFFFFF;" parent="gLL-6p7I-ZL1emImGpAk-1" vertex="1">
          <mxGeometry x="5" y="20" width="200" height="70" as="geometry" />
        </mxCell>
        <mxCell id="gLL-6p7I-ZL1emImGpAk-2" value="Прогресс" style="swimlane;whiteSpace=wrap;html=1;strokeColor=#FFFFFF;fontColor=#000000;" parent="1" vertex="1">
          <mxGeometry x="342" y="60" width="116" height="110" as="geometry" />
        </mxCell>
        <mxCell id="gLL-6p7I-ZL1emImGpAk-8" value="id статуса&lt;br&gt;id пользователя&lt;br&gt;id задания&lt;br&gt;Статус" style="text;html=1;align=left;verticalAlign=middle;resizable=0;points=[];autosize=1;strokeColor=none;fillColor=none;fontColor=#FFFFFF;" parent="gLL-6p7I-ZL1emImGpAk-2" vertex="1">
          <mxGeometry y="30" width="110" height="70" as="geometry" />
        </mxCell>
        <mxCell id="gLL-6p7I-ZL1emImGpAk-3" value="Курсы" style="swimlane;whiteSpace=wrap;html=1;strokeColor=#FFFFFF;fontColor=#000000;" parent="1" vertex="1">
          <mxGeometry x="300" y="350" width="190" height="112" as="geometry" />
        </mxCell>
        <mxCell id="gLL-6p7I-ZL1emImGpAk-10" value="id курса&lt;br&gt;id языка&lt;br&gt;id языка программирования&lt;br&gt;Название&lt;br&gt;Сложность" style="text;html=1;align=left;verticalAlign=middle;resizable=0;points=[];autosize=1;strokeColor=none;fillColor=none;fontColor=#FFFFFF;" parent="gLL-6p7I-ZL1emImGpAk-3" vertex="1">
          <mxGeometry y="22" width="180" height="90" as="geometry" />
        </mxCell>
        <mxCell id="gLL-6p7I-ZL1emImGpAk-4" value="Языки программирования" style="swimlane;whiteSpace=wrap;html=1;strokeColor=#FFFFFF;fontColor=#000000;" parent="1" vertex="1">
          <mxGeometry x="25" y="420" width="175" height="82" as="geometry" />
        </mxCell>
        <mxCell id="gLL-6p7I-ZL1emImGpAk-12" value="id языка программирования&lt;br&gt;Язык программирования" style="text;html=1;align=left;verticalAlign=middle;resizable=0;points=[];autosize=1;strokeColor=none;fillColor=none;fontColor=#FFFFFF;" parent="gLL-6p7I-ZL1emImGpAk-4" vertex="1">
          <mxGeometry x="5" y="32" width="180" height="40" as="geometry" />
        </mxCell>
        <mxCell id="gLL-6p7I-ZL1emImGpAk-5" value="Языки" style="swimlane;whiteSpace=wrap;html=1;strokeColor=#FFFFFF;fontColor=#000000;" parent="1" vertex="1">
          <mxGeometry x="80" y="330" width="80" height="70" as="geometry" />
        </mxCell>
        <mxCell id="gLL-6p7I-ZL1emImGpAk-11" value="id языка&lt;br&gt;Язык" style="text;html=1;align=left;verticalAlign=middle;resizable=0;points=[];autosize=1;strokeColor=none;fillColor=none;fontColor=#FFFFFF;" parent="gLL-6p7I-ZL1emImGpAk-5" vertex="1">
          <mxGeometry y="25" width="70" height="40" as="geometry" />
        </mxCell>
        <mxCell id="gLL-6p7I-ZL1emImGpAk-6" value="ТехПоддержка" style="swimlane;whiteSpace=wrap;html=1;strokeColor=#FFFFFF;fontColor=#000000;" parent="1" vertex="1">
          <mxGeometry x="340" y="200" width="120" height="90" as="geometry" />
        </mxCell>
        <mxCell id="gLL-6p7I-ZL1emImGpAk-9" value="id заявки&lt;br&gt;id пользователя&lt;br&gt;Заявка" style="text;html=1;align=left;verticalAlign=middle;resizable=0;points=[];autosize=1;strokeColor=none;fillColor=none;fontColor=#FFFFFF;" parent="gLL-6p7I-ZL1emImGpAk-6" vertex="1">
          <mxGeometry y="25" width="110" height="60" as="geometry" />
        </mxCell>
        <mxCell id="gLL-6p7I-ZL1emImGpAk-13" value="Теория" style="swimlane;whiteSpace=wrap;html=1;strokeColor=#FFFFFF;fontColor=#000000;" parent="1" vertex="1">
          <mxGeometry x="580" y="320" width="80" height="90" as="geometry" />
        </mxCell>
        <mxCell id="gLL-6p7I-ZL1emImGpAk-14" value="id теории&lt;br&gt;id курс&lt;br&gt;Теория" style="text;html=1;align=left;verticalAlign=middle;resizable=0;points=[];autosize=1;strokeColor=none;fillColor=none;fontColor=#FFFFFF;" parent="gLL-6p7I-ZL1emImGpAk-13" vertex="1">
          <mxGeometry y="26" width="70" height="60" as="geometry" />
        </mxCell>
        <mxCell id="gLL-6p7I-ZL1emImGpAk-15" value="Задания" style="swimlane;whiteSpace=wrap;html=1;strokeColor=#FFFFFF;fontColor=#000000;" parent="1" vertex="1">
          <mxGeometry x="580" y="420" width="100" height="100" as="geometry" />
        </mxCell>
        <mxCell id="gLL-6p7I-ZL1emImGpAk-16" value="id задания&lt;br&gt;id курс&lt;br&gt;Задание&lt;br&gt;Ответ" style="text;html=1;align=left;verticalAlign=middle;resizable=0;points=[];autosize=1;strokeColor=none;fillColor=none;fontColor=#FFFFFF;" parent="gLL-6p7I-ZL1emImGpAk-15" vertex="1">
          <mxGeometry y="30" width="80" height="70" as="geometry" />
        </mxCell>
        <mxCell id="gLL-6p7I-ZL1emImGpAk-17" value="" style="html=1;verticalAlign=bottom;startArrow=oval;startFill=1;endArrow=none;curved=0;rounded=0;endFill=0;entryX=1;entryY=0.5;entryDx=0;entryDy=0;strokeColor=#FFFFFF;fontColor=#FFFFFF;" parent="1" target="gLL-6p7I-ZL1emImGpAk-5" edge="1">
          <mxGeometry width="60" relative="1" as="geometry">
            <mxPoint x="298" y="403" as="sourcePoint" />
            <mxPoint x="260" y="400" as="targetPoint" />
          </mxGeometry>
        </mxCell>
        <mxCell id="gLL-6p7I-ZL1emImGpAk-18" value="" style="html=1;verticalAlign=bottom;startArrow=oval;startFill=1;endArrow=none;curved=0;rounded=0;endFill=0;entryX=1;entryY=0.5;entryDx=0;entryDy=0;strokeColor=#FFFFFF;fontColor=#FFFFFF;" parent="1" target="gLL-6p7I-ZL1emImGpAk-4" edge="1">
          <mxGeometry width="60" relative="1" as="geometry">
            <mxPoint x="297" y="418" as="sourcePoint" />
            <mxPoint x="230" y="462.5" as="targetPoint" />
          </mxGeometry>
        </mxCell>
        <mxCell id="gLL-6p7I-ZL1emImGpAk-19" value="" style="html=1;verticalAlign=bottom;startArrow=oval;startFill=1;endArrow=none;curved=0;rounded=0;endFill=0;exitX=-0.013;exitY=0.549;exitDx=0;exitDy=0;exitPerimeter=0;strokeColor=#FFFFFF;fontColor=#FFFFFF;" parent="1" source="gLL-6p7I-ZL1emImGpAk-14" edge="1">
          <mxGeometry width="60" relative="1" as="geometry">
            <mxPoint x="731" y="277" as="sourcePoint" />
            <mxPoint x="490" y="390" as="targetPoint" />
          </mxGeometry>
        </mxCell>
        <mxCell id="gLL-6p7I-ZL1emImGpAk-20" value="" style="html=1;verticalAlign=bottom;startArrow=oval;startFill=1;endArrow=none;curved=0;rounded=0;endFill=0;strokeColor=#FFFFFF;fontColor=#FFFFFF;" parent="1" edge="1">
          <mxGeometry width="60" relative="1" as="geometry">
            <mxPoint x="577" y="479" as="sourcePoint" />
            <mxPoint x="490" y="390" as="targetPoint" />
          </mxGeometry>
        </mxCell>
        <mxCell id="gLL-6p7I-ZL1emImGpAk-21" value="" style="html=1;verticalAlign=bottom;startArrow=oval;startFill=1;endArrow=none;curved=0;rounded=0;endFill=0;strokeColor=#FFFFFF;fontColor=#FFFFFF;" parent="1" edge="1">
          <mxGeometry width="60" relative="1" as="geometry">
            <mxPoint x="338" y="255" as="sourcePoint" />
            <mxPoint x="250" y="170" as="targetPoint" />
          </mxGeometry>
        </mxCell>
        <mxCell id="gLL-6p7I-ZL1emImGpAk-22" value="" style="html=1;verticalAlign=bottom;startArrow=oval;startFill=1;endArrow=none;curved=0;rounded=0;endFill=0;strokeColor=#FFFFFF;fontColor=#FFFFFF;" parent="1" edge="1">
          <mxGeometry width="60" relative="1" as="geometry">
            <mxPoint x="340" y="120" as="sourcePoint" />
            <mxPoint x="250" y="170" as="targetPoint" />
          </mxGeometry>
        </mxCell>
        <mxCell id="gLL-6p7I-ZL1emImGpAk-23" value="" style="html=1;verticalAlign=bottom;startArrow=oval;startFill=1;endArrow=none;curved=0;rounded=0;endFill=0;exitX=1.045;exitY=0.586;exitDx=0;exitDy=0;exitPerimeter=0;entryX=0;entryY=0.6;entryDx=0;entryDy=0;entryPerimeter=0;strokeColor=#FFFFFF;fontColor=#FFFFFF;" parent="1" source="gLL-6p7I-ZL1emImGpAk-8" target="gLL-6p7I-ZL1emImGpAk-16" edge="1">
          <mxGeometry width="60" relative="1" as="geometry">
            <mxPoint x="611" y="118" as="sourcePoint" />
            <mxPoint x="520" y="510" as="targetPoint" />
            <Array as="points">
              <mxPoint x="520" y="131" />
              <mxPoint x="520" y="490" />
            </Array>
          </mxGeometry>
        </mxCell>
      </root>
    </mxGraphModel>
  </diagram>
</mxfile>
